<svg width="300" height="331" viewBox="0 0 300 331" fill="none" xmlns="http://www.w3.org/2000/svg">
<rect x="90.175" y="104.646" width="200.615" height="180.548" transform="rotate(15 90.175 104.646)" fill="#E6DABC"/>
<rect x="87.5548" y="104.482" width="200.615" height="180.548" transform="rotate(15 87.5548 104.482)" fill="#FAEDCD"/>
<rect x="85.5488" y="104.482" width="200.615" height="180.548" transform="rotate(15 85.5488 104.482)" fill="#E6DABC"/>
<rect x="82.9284" y="104.317" width="200.615" height="180.548" transform="rotate(15 82.9284 104.317)" fill="#FAEDCD"/>
<rect x="82.1507" y="104.646" width="200.615" height="180.548" transform="rotate(15 82.1507 104.646)" fill="#E6DABC"/>
<rect x="79.5305" y="104.482" width="200.615" height="180.548" transform="rotate(15 79.5305 104.482)" fill="#FAEDCD"/>
<rect x="77.5244" y="104.482" width="200.615" height="180.548" transform="rotate(15 77.5244 104.482)" fill="#E6DABC"/>
<rect x="74.9041" y="104.317" width="200.615" height="180.548" transform="rotate(15 74.9041 104.317)" fill="#FAEDCD"/>
<rect x="72.1203" y="104.646" width="200.615" height="180.548" transform="rotate(15 72.1203 104.646)" fill="#E6DABC"/>
<rect x="69.5001" y="104.482" width="200.615" height="180.548" transform="rotate(15 69.5001 104.482)" fill="#FAEDCD"/>
<rect x="67.4939" y="104.482" width="200.615" height="180.548" transform="rotate(15 67.4939 104.482)" fill="#E6DABC"/>
<rect x="64.8737" y="104.317" width="200.615" height="180.548" transform="rotate(15 64.8737 104.317)" fill="#FAEDCD"/>
<rect x="62.0898" y="104.646" width="200.615" height="180.548" transform="rotate(15 62.0898 104.646)" fill="#E6DABC"/>
<rect x="59.4695" y="104.482" width="200.615" height="180.548" transform="rotate(15 59.4695 104.482)" fill="#FAEDCD"/>
<rect x="57.4635" y="104.482" width="200.615" height="180.548" transform="rotate(15 57.4635 104.482)" fill="#E6DABC"/>
<rect x="54.8433" y="104.317" width="200.615" height="180.548" transform="rotate(15 54.8433 104.317)" fill="#FAEDCD"/>
<rect x="54.0656" y="104.646" width="200.615" height="180.548" transform="rotate(15 54.0656 104.646)" fill="#E6DABC"/>
<rect x="51.4453" y="104.482" width="200.615" height="180.548" transform="rotate(15 51.4453 104.482)" fill="#FAEDCD"/>
<rect x="49.4394" y="104.482" width="200.615" height="180.548" transform="rotate(15 49.4394 104.482)" fill="#E6DABC"/>
<rect x="46.7292" y="104.293" width="200.707" height="180.548" transform="rotate(15 46.7292 104.293)" fill="#FAEDCD"/>
<path d="M255.221 101.448L239.645 159.844L45.8712 107.687L61.4474 49.2906L255.221 101.448ZM299.609 98.4342L284.112 156.528L239.653 159.82L255.223 101.448L298.816 98.2213L299.609 98.4342Z" fill="#B1875F"/>
<rect x="61.4682" y="49.2957" width="200.751" height="60.6644" transform="rotate(15 61.4682 49.2957)" fill="#D4A373"/>
<path d="M51.3384 196.873L48.2098 196.433L53.6745 175.667L56.5656 176.376L56.423 178.392L59.0682 183.109L60.4481 177.217L64.0878 177.729L58.7809 199.265L55.653 198.328L58.5695 186.454L55.1427 182.057L51.3384 196.873ZM65.444 180.511L67.2684 178.647L73.5513 180.298L74.4365 183.053L70.5663 199.475L68.6265 201.274L61.7254 199.458L61.1902 197.128L65.444 180.511ZM69.3469 181.523L64.8646 197.881L66.5646 198.336L70.9994 182.032L69.3469 181.523ZM75.8328 181.373L85.8421 183.459L84.8179 186.663L81.5475 185.886L76.8806 204.91L73.6208 203.97L78.3451 185.226L75.1923 184.382L75.8328 181.373ZM86.5479 183.747L96.0002 186.18L95.2211 189.583L88.9586 188.103L86.061 197.928L91.7467 199.087L91.0648 202.251L85.4453 200.844L84.9704 203.235L91.1214 204.883L90.5902 207.855L80.8597 205.347L86.5479 183.747ZM97.5252 186.125L107.507 188.436L105.563 196.064L98.7333 194.599L95.4887 208.438L91.8105 207.453L97.5252 186.125ZM100.753 189.409L100.066 191.974L103.182 192.71L103.68 189.861L100.753 189.409ZM105.113 212.409L101.873 211.64L108.832 189.751L117.511 191.977L112.556 214.304L109.914 213.529L111.72 204.936L107.654 203.913L105.113 212.409ZM110.275 194.378L108.466 200.387L112.347 201.36L114.238 195.043L110.275 194.378ZM120.144 192.65L126.521 194.69L129.372 197.773L125.716 212.529L120.597 216.922L113.739 215.316C117.867 200.653 120.002 193.097 120.144 192.65ZM125.034 196.776L122.891 196.367L118.079 212.471L119.748 212.918L122.352 211.363L125.971 199.214L125.034 196.776ZM134.64 196.998L141.888 198.509L143.284 199.976L141.749 205.827L137.028 204.528L137.802 201.887L134.362 200.634L130.138 214.542L134.03 215.718L135.277 210.817L133.453 210.329L134.389 206.836L140.911 208.584L137.533 220.698L135.303 220.365L136.067 217.39L133.007 219.783L128.172 218.786L126.462 215.28L131.171 198.321L134.64 196.998ZM142.18 222.341L138.941 221.572L145.899 199.683L154.578 201.91L149.623 224.236L146.982 223.462L148.787 214.868L144.721 213.845L142.18 222.341ZM147.343 204.311L145.534 210.319L149.414 211.293L151.306 204.975L147.343 204.311ZM157.089 203.41L170.605 206.502L164.966 227.916L162.562 227.371L167.159 209.223L164.542 208.853L160.027 226.692L157.023 225.788L161.546 207.918L158.914 207.477L154.634 225.181L150.964 224.164L157.089 203.41ZM172.515 206.782L181.968 209.215L181.189 212.618L174.926 211.138L172.028 220.963L177.714 222.122L177.032 225.285L171.413 223.879L170.938 226.27L177.089 227.918L176.558 230.89L166.827 228.382L172.515 206.782ZM191.899 211.91L193.287 213.408L192.45 216.53L189.231 215.932L189.718 214.24L185.657 212.953L183.682 219.58L190.952 221.628L189.324 231.66L186.588 233.71L178.898 231.749L177.718 230.339L179.989 222.732L183.76 223.742L182.308 230.642L184.833 231.484L187.1 223.146L180.139 221.182L182.929 211.262L185.132 209.964L191.899 211.91Z" fill="black"/>
<path d="M113.434 49.1495L300 98.2987L255.866 101.308L61.2753 49.1495H113.434Z" fill="#EDBB8B"/>
<path d="M218.753 128.39C218.753 133.93 214.263 138.421 208.723 138.421C203.183 138.421 198.693 133.93 198.693 128.39C198.693 122.85 204.186 118.36 209.726 118.36C215.266 118.36 218.753 122.85 218.753 128.39Z" fill="#BABABA"/>
<path d="M184.177 70.1687C192.78 38.0635 217.105 16.6868 238.508 22.4216L239.008 22.5603C259.503 28.4715 269.661 57.451 262.336 88.3523L243.008 83.1726C245.694 71.4256 244.981 60.8127 242.405 53.199C239.588 44.8717 235.566 42.3385 233.333 41.74C231.1 41.1417 226.35 41.3242 219.746 47.1277C213.268 52.8205 206.918 62.5748 203.496 75.3455C200.092 88.0477 200.783 99.5454 203.589 107.619C206.445 115.838 210.519 118.465 212.896 119.102C212.997 119.129 213.103 119.153 213.214 119.177L208.035 138.502C207.93 138.475 207.825 138.449 207.72 138.421L207.22 138.282C186.481 132.306 175.976 102.969 183.789 71.6726L184.177 70.1687Z" fill="#BABABA"/>
<path d="M105.845 98.9377C105.845 104.477 101.354 108.968 95.8147 108.968C90.275 108.968 85.7842 104.477 85.7842 98.9377C85.7842 93.398 91.2781 88.9072 96.8177 88.9072C102.357 88.9072 105.845 93.398 105.845 98.9377Z" fill="#BABABA"/>
<path d="M71.2689 45.3387C79.8715 15.4362 104.197 -4.47497 125.6 0.866089L126.1 0.995972C145.727 6.26861 155.872 31.2456 150.262 58.6298L130.796 53.6805C132.372 44.7062 131.577 36.6873 129.413 30.7303C126.746 23.3865 122.814 20.7715 120.071 20.0868C117.327 19.4023 112.518 19.8355 106.266 24.953C100.059 30.0336 93.9648 38.7434 90.6741 50.1815C87.4048 61.5465 88.071 71.8082 90.7591 79.0135C93.4663 86.2697 97.4597 88.9681 100.341 89.6874C100.444 89.713 100.55 89.7363 100.658 89.7587L95.1263 108.983C95.0216 108.958 94.9164 108.934 94.8118 108.908L94.3118 108.779C73.5733 103.213 63.0677 75.8878 70.8802 46.7391L71.2689 45.3387Z" fill="#BABABA"/>
</svg>
